<?xml version="1.0" standalone="no"?>
<!DOCTYPE svg PUBLIC "-//W3C//DTD SVG 20010904//EN"
 "http://www.w3.org/TR/2001/REC-SVG-20010904/DTD/svg10.dtd">
<svg version="1.0" xmlns="http://www.w3.org/2000/svg"
 width="1786.000000pt" height="1786.000000pt" viewBox="0 0 1786.000000 1786.000000"
 preserveAspectRatio="xMidYMid meet">
<metadata>
Created by potrace 1.16, written by Peter Selinger 2001-2019
</metadata>
<g transform="translate(0.000000,1786.000000) scale(0.100000,-0.100000)"
fill="#000000" stroke="none">
<path d="M15485 15075 c-22 -7 -74 -27 -115 -44 -41 -17 -81 -31 -87 -31 -7 0
-32 -9 -55 -19 -24 -11 -68 -30 -99 -43 -104 -44 -168 -117 -184 -209 -3 -18
-9 -37 -12 -43 -14 -21 -3 -656 13 -770 23 -171 68 -245 164 -273 30 -8 81
-28 112 -44 77 -39 191 -69 260 -69 63 0 216 33 262 57 35 18 37 24 -40 -78
-44 -58 -174 -248 -174 -255 0 -2 -15 -27 -34 -56 -51 -81 -115 -214 -141
-292 -61 -188 -89 -462 -69 -676 17 -170 36 -265 85 -409 l38 -115 -92 91
c-51 49 -100 96 -110 104 -10 8 -23 19 -30 24 -172 147 -297 223 -436 265 -66
20 -88 22 -210 17 -147 -6 -204 -16 -436 -78 -321 -86 -480 -155 -722 -315
-142 -93 -160 -109 -418 -370 -265 -267 -327 -320 -452 -383 -37 -18 -59 -21
-170 -21 l-128 0 -140 59 c-212 88 -577 256 -700 321 -257 136 -575 268 -895
372 -333 108 -474 156 -610 210 -142 55 -237 81 -360 98 -47 7 -128 25 -180
41 -180 54 -254 62 -455 53 -99 -4 -270 -7 -380 -5 -268 4 -422 -13 -740 -83
-77 -17 -302 -82 -410 -120 -364 -125 -834 -338 -1035 -471 -19 -13 -80 -50
-135 -83 -55 -32 -167 -101 -250 -152 -637 -394 -710 -431 -946 -477 -22 -4
-34 4 -76 51 -63 72 -151 134 -278 198 -55 28 -140 75 -190 105 -181 111 -385
201 -560 248 -298 79 -772 97 -1100 40 -49 -9 -246 -65 -305 -88 -178 -67
-470 -237 -755 -441 -289 -205 -374 -276 -525 -432 -244 -252 -344 -424 -476
-821 -164 -492 -232 -864 -206 -1137 31 -332 156 -768 283 -991 69 -121 210
-313 286 -390 148 -150 483 -356 713 -440 127 -46 322 -84 490 -95 272 -19
353 -29 436 -53 86 -25 214 -95 240 -131 16 -22 17 -27 89 -296 97 -359 226
-523 425 -538 l70 -5 44 44 c63 63 86 143 93 322 3 76 9 140 13 142 5 3 31
-37 60 -89 108 -196 249 -291 530 -358 98 -23 172 -21 415 12 199 27 278 48
415 109 176 79 266 156 412 353 48 64 144 222 165 269 6 15 40 62 75 105 118
145 205 272 228 333 14 39 26 58 34 54 6 -4 52 -39 102 -79 177 -141 377 -235
784 -369 354 -117 511 -199 672 -353 186 -178 286 -448 319 -857 18 -225 30
-370 44 -525 8 -85 19 -218 25 -295 15 -210 29 -377 41 -506 8 -75 9 -198 5
-350 -4 -129 -9 -358 -12 -509 -3 -151 -9 -324 -14 -385 -7 -101 -6 -114 13
-155 24 -50 62 -90 86 -90 9 0 28 14 42 32 42 51 126 60 362 42 103 -8 219
-21 257 -29 38 -8 134 -22 212 -30 79 -9 164 -21 191 -26 55 -13 72 -4 82 42
7 33 17 36 36 13 30 -36 33 26 9 196 -6 41 -13 95 -16 120 -3 25 -9 54 -14 65
-4 11 -14 52 -20 90 -7 39 -16 95 -21 125 -20 114 -28 253 -33 525 -4 245 0
381 20 595 3 30 7 82 9 115 7 129 16 241 20 255 3 8 7 46 10 85 4 38 8 72 10
76 4 6 24 191 30 289 6 79 31 214 55 290 11 36 20 72 20 81 0 8 18 52 40 97
36 75 59 112 150 245 18 27 105 122 194 212 l161 162 130 63 c72 34 173 84
225 110 52 26 106 51 120 55 14 4 70 29 125 55 55 26 145 67 200 91 153 66
339 164 450 237 90 59 283 199 311 227 6 5 26 21 45 35 119 87 450 446 572
620 95 137 160 245 223 373 41 84 83 168 93 187 15 29 96 260 108 309 2 10 15
12 51 7 70 -9 526 12 607 28 39 8 140 32 225 55 180 48 172 45 360 105 180 56
466 135 625 171 175 40 640 195 656 218 3 5 10 9 15 9 11 0 18 3 249 95 160
64 425 186 460 212 6 5 60 34 120 66 61 31 119 65 130 75 57 52 299 184 410
224 100 36 169 83 274 186 118 115 171 185 223 296 40 87 48 125 68 359 5 55
16 161 26 235 25 206 25 753 0 915 -10 66 -20 134 -22 150 -2 17 -7 37 -11 45
-4 8 -10 285 -14 615 -7 639 -14 756 -65 1065 -29 181 -93 471 -128 584 -18
59 -23 91 -19 128 5 44 1 60 -40 146 -25 53 -68 145 -95 203 -68 145 -103 181
-254 259 -68 34 -133 72 -146 83 -13 13 -45 24 -80 29 -31 5 -82 13 -112 17
-244 39 -286 38 -413 -11 -26 -10 -51 -18 -54 -18 -16 0 15 19 50 30 36 11 43
23 31 54 -8 20 -71 20 -129 1z m-12134 -5211 c128 -23 245 -61 344 -111 149
-74 299 -162 341 -200 21 -19 91 -79 154 -133 150 -128 255 -239 362 -386 191
-263 212 -300 333 -573 63 -144 138 -305 165 -357 80 -152 314 -496 454 -666
71 -86 136 -168 145 -182 9 -13 31 -43 49 -65 19 -23 32 -41 30 -41 -28 1
-253 70 -322 99 -92 40 -172 63 -256 76 -25 4 -94 23 -154 41 -163 51 -228 60
-354 45 -199 -23 -391 -106 -515 -223 -34 -32 -65 -58 -69 -58 -4 0 -1 15 7
33 42 102 59 324 30 395 -37 86 -112 129 -258 145 -124 13 -183 4 -367 -58
-155 -52 -196 -55 -400 -30 -471 58 -680 146 -926 390 -117 116 -193 238 -252
407 -95 270 -82 477 47 737 151 304 276 433 546 566 96 47 319 118 425 134 36
6 88 15 115 20 81 14 236 12 326 -5z"/>
</g>
</svg>
